<svg width="1181" height="219" viewBox="0 0 1181 219" fill="none" xmlns="http://www.w3.org/2000/svg">
<path d="M67.75 219H0.420456V0.818175H70.733C91.8977 0.818175 110.009 5.18608 125.065 13.9219C140.122 22.5866 151.663 35.0511 159.689 51.3153C167.714 67.5085 171.727 86.8977 171.727 109.483C171.727 132.21 167.679 151.777 159.582 168.183C151.486 184.518 139.696 197.089 124.213 205.896C108.73 214.632 89.9091 219 67.75 219ZM26.8409 195.562H66.0455C84.0852 195.562 99.0355 192.082 110.896 185.122C122.757 178.162 131.599 168.254 137.423 155.399C143.247 142.544 146.159 127.239 146.159 109.483C146.159 91.8693 143.283 76.706 137.53 63.9929C131.777 51.2088 123.183 41.4077 111.749 34.5895C100.314 27.7003 86.0739 24.2557 69.0284 24.2557H26.8409V195.562ZM216.045 219V0.818175H347.722V24.2557H242.466V97.9773H340.903V121.415H242.466V195.562H349.426V219H216.045ZM404.291 0.818175L469.064 184.483H471.621L536.393 0.818175H564.092L483.979 219H456.706L376.592 0.818175H404.291ZM598.077 219V0.818175H728.901V24.2557H624.497V97.9773H719.099V121.415H624.497V219H598.077ZM774.151 219V0.818175H800.571V195.562H901.992V219H774.151ZM969.321 0.818175V219H942.901V0.818175H969.321ZM1035.08 0.818175L1091.33 91.5852H1093.03L1149.28 0.818175H1180.39L1111.78 109.909L1180.39 219H1149.28L1093.03 129.938H1091.33L1035.08 219H1003.97L1074.28 109.909L1003.97 0.818175H1035.08Z" fill="#F1F5F9"/>
</svg>
